<svg xmlns="http://www.w3.org/2000/svg" height="135pt" version="1.1" viewBox="0 -27 135.39068 135" width="135pt">
<g id="surface1">
<path d="M 87.21875 10.449219 C 87.21875 16.109375 82.628906 20.699219 76.96875 20.699219 C 71.304688 20.699219 66.714844 16.109375 66.714844 10.449219 C 66.714844 4.785156 71.304688 0.195312 76.96875 0.195312 C 82.628906 0.195312 87.21875 4.785156 87.21875 10.449219 Z M 87.21875 10.449219 " style=" stroke:none;fill-rule:nonzero;fill:rgb(0%,0%,0%);fill-opacity:1;" />
<path d="M 131.417969 37.265625 L 120.878906 34.511719 L 122.9375 32.457031 C 124.253906 30.972656 124.121094 28.695312 122.636719 27.375 C 121.269531 26.164062 119.214844 26.164062 117.851562 27.375 L 93.484375 51.695312 C 92.164062 53.179688 92.300781 55.453125 93.785156 56.773438 C 95.148438 57.988281 97.207031 57.988281 98.570312 56.773438 L 100.621094 54.71875 L 103.402344 65.285156 C 103.730469 66.527344 104.78125 67.449219 106.054688 67.613281 L 118.960938 69.207031 L 119.542969 64.460938 L 108.996094 61.632812 L 107.210938 54.867188 L 121.0625 41.015625 L 127.816406 42.796875 L 130.855469 53.335938 L 135.390625 52.777344 L 133.808594 39.910156 C 133.632812 38.617188 132.683594 37.570312 131.417969 37.265625 Z M 131.417969 37.265625 " style=" stroke:none;fill-rule:nonzero;fill:rgb(0%,0%,0%);fill-opacity:1;" />
<path d="M 14.507812 68.148438 L 14.992188 68.285156 L 14.992188 70.890625 C 14.976562 72.574219 16.335938 73.949219 18.019531 73.964844 C 18.03125 73.964844 18.046875 73.964844 18.058594 73.964844 L 21.113281 73.964844 L 21.113281 81.292969 L 36.058594 81.292969 L 36.058594 40.179688 C 27.527344 41.132812 21.078125 48.351562 21.097656 56.933594 L 21.097656 58.792969 L 18.058594 58.792969 C 16.371094 58.792969 15.007812 60.160156 15.007812 61.84375 L 15.007812 64.410156 C 11 62.882812 7.667969 59.980469 5.597656 56.226562 C 3.109375 51.433594 3.109375 45.363281 5.488281 38.199219 C 7.578125 31.683594 12.382812 26.394531 18.664062 23.6875 C 26.898438 19.953125 37.898438 19.953125 46.933594 23.441406 L 45.175781 25.199219 C 43.988281 26.386719 43.988281 28.316406 45.175781 29.507812 L 47.570312 31.996094 L 39.796875 40.179688 L 39.796875 81.292969 L 54.746094 81.292969 L 54.746094 56.933594 C 54.746094 53.386719 53.625 49.929688 51.527344 47.054688 L 75.195312 22.566406 C 70.347656 21.84375 66.394531 18.304688 65.144531 13.5625 L 47.707031 31.882812 L 58.070312 20.949219 L 55.914062 18.792969 C 54.726562 17.605469 52.796875 17.605469 51.605469 18.792969 L 49.773438 20.621094 L 49.199219 20.335938 L 49.089844 20.335938 C 39.023438 16.113281 26.46875 16.113281 17.113281 20.335938 C 9.921875 23.484375 4.421875 29.550781 1.976562 37.007812 C -0.777344 45.203125 -0.65625 52.253906 2.347656 57.996094 C 4.976562 62.792969 9.320312 66.414062 14.507812 68.148438 Z M 14.507812 68.148438 " style=" stroke:none;fill-rule:nonzero;fill:rgb(0%,0%,0%);fill-opacity:1;" />
<path d="M 79.210938 22.503906 L 99.414062 42.707031 L 109.230469 32.894531 L 89.0625 12.6875 C 88.121094 17.6875 84.207031 21.585938 79.210938 22.503906 Z M 79.210938 22.503906 " style=" stroke:none;fill-rule:nonzero;fill:rgb(0%,0%,0%);fill-opacity:1;" />
</g>
</svg>