<?xml version="1.0" encoding="utf-8"?>
<!-- Generator: Adobe Illustrator 16.2.1, SVG Export Plug-In . SVG Version: 6.00 Build 0)  -->
<!DOCTYPE svg PUBLIC "-//W3C//DTD SVG 1.1//EN" "http://www.w3.org/Graphics/SVG/1.1/DTD/svg11.dtd">
<svg version="1.1" id="Layer_1" xmlns="http://www.w3.org/2000/svg" xmlns:xlink="http://www.w3.org/1999/xlink" x="0px" y="0px"
	 width="135px" height="135px" viewBox="0 0 135 135" enable-background="new 0 0 135 135" xml:space="preserve">
<g>
	<polygon fill="none" points="44.583,14.964 43.903,14.962 43.902,14.964 	"/>
	<path fill="#FD8945" d="M97.707,66.522c-5.643,0-10.219,4.578-10.219,10.224c0,5.645,4.576,10.221,10.219,10.221
		c5.648,0,10.225-4.576,10.225-10.221C107.932,71.1,103.355,66.522,97.707,66.522z"/>
	<path fill="#FD8945" d="M56.581,93.215c-1.479-1.316-3.747-1.179-5.063,0.301c-1.211,1.359-1.211,3.412,0,4.771l2.049,2.045
		l-10.535,2.772c-1.239,0.33-2.157,1.375-2.321,2.646l-1.59,12.869l4.731,0.581l2.82-10.518l6.746-1.779l13.812,13.812l-1.777,6.734
		l-10.508,3.03L55.502,135l12.83-1.578c1.289-0.175,2.332-1.121,2.637-2.383l2.746-10.51l2.049,2.053
		c1.48,1.312,3.75,1.18,5.066-0.299c1.209-1.363,1.209-3.412,0-4.771L56.581,93.215z"/>
	<path fill="#FD8945" d="M37.441,14.948c-1.678-0.015-3.049,1.34-3.065,3.019c0,0.011,0,0.026,0,0.038v3.047h-7.308v14.902h40.994
		c-0.95-8.508-8.146-14.938-16.705-14.918h-1.854v-3.031c0-1.682-1.363-3.041-3.042-3.041h-1.879h-0.681c0,0,0-0.001,0.001-0.002
		l-5.237-0.014H37.441z"/>
	<path fill="#BE3930" d="M61.21,51.378l24.416,23.601c0.722-4.834,4.25-8.775,8.979-10.021L76.337,47.569l10.901,10.333l2.15-2.149
		c1.185-1.185,1.185-3.108,0-4.296l-1.824-1.827l0.285-0.573v-0.108c4.211-10.038,4.211-22.556,0-31.884
		C84.711,9.893,78.663,4.409,71.227,1.971c-8.172-2.746-15.203-2.625-20.928,0.37c-4.783,2.622-8.395,6.952-10.122,12.124
		l-0.137,0.483h-1.374l5.237,0.014c1.522-3.995,4.417-7.317,8.159-9.381C56.842,3.1,62.895,3.1,70.037,5.472
		c6.498,2.084,11.771,6.875,14.471,13.138c3.723,8.209,3.723,19.178,0.246,28.188L83,45.044c-1.184-1.184-3.107-1.184-4.295,0
		l-2.482,2.389l-8.16-7.752H27.068v14.906h24.289C54.896,54.587,58.343,53.47,61.21,51.378z"/>
	<path fill="#BE3930" d="M85.689,78.982L65.544,99.127l9.785,9.788l20.147-20.108C90.49,87.867,86.604,83.964,85.689,78.982z"/>
</g>
</svg>
