<?xml version="1.0" encoding="utf-8"?>
<!-- Generator: Adobe Illustrator 16.2.1, SVG Export Plug-In . SVG Version: 6.00 Build 0)  -->
<!DOCTYPE svg PUBLIC "-//W3C//DTD SVG 1.1//EN" "http://www.w3.org/Graphics/SVG/1.1/DTD/svg11.dtd">
<svg version="1.1" id="Layer_1" xmlns="http://www.w3.org/2000/svg" xmlns:xlink="http://www.w3.org/1999/xlink" x="0px" y="0px"
	 width="135px" height="135px" viewBox="0 0 135 135" enable-background="new 0 0 135 135" xml:space="preserve">
<g id="surface1" transform="rotate(180)">
	<path d="M-58.253-26.986c-5.647,0-10.224-4.576-10.224-10.225c0-5.643,4.577-10.22,10.224-10.22c5.644,0,10.221,4.577,10.221,10.22
		C-48.033-31.562-52.609-26.986-58.253-26.986z"/>
	<path d="M-1.578-66.586L0-79.416l-4.522-0.557l-3.03,10.508l-6.734,1.776L-28.099-81.5l1.78-6.746l10.517-2.82l-0.581-4.732
		l-12.869,1.59c-1.27,0.163-2.317,1.082-2.645,2.32l-2.773,10.537l-2.045-2.049c-1.359-1.212-3.412-1.212-4.771,0
		c-1.48,1.316-1.617,3.583-0.3,5.062l24.297,24.25c1.359,1.208,3.408,1.208,4.771,0c1.48-1.316,1.613-3.587,0.3-5.066l-2.052-2.049
		l10.508-2.746C-2.699-64.254-1.753-65.297-1.578-66.586z"/>
	<path d="M-132.659-84.62c-2.995,5.726-3.116,12.756-0.37,20.928c2.438,7.436,7.922,13.484,15.094,16.624
		c9.328,4.211,21.846,4.211,31.884,0h0.108l0.573-0.285l1.827,1.823c1.188,1.185,3.111,1.185,4.296,0l2.149-2.149l-10.333-10.902
		l17.388,18.268c1.246-4.729,5.188-8.258,10.021-8.979l-23.6-24.417c2.092-2.867,3.209-6.313,3.209-9.851v-24.289h-14.906v40.994
		l7.752,8.16l-2.389,2.481c-1.184,1.188-1.184,3.112,0,4.296l1.754,1.753c-9.01,3.478-19.979,3.478-28.188-0.245
		c-6.263-2.699-11.054-7.973-13.138-14.471c-2.372-7.143-2.372-13.195,0.109-17.975c2.064-3.743,5.387-6.637,9.383-8.16v2.559
		c0,1.68,1.359,3.043,3.041,3.043h3.031v1.854c-0.02,8.557,6.41,15.755,14.918,16.705v-40.994h-14.902v7.307h-3.047
		c-0.012,0-0.027,0-0.038,0c-1.679,0.016-3.034,1.387-3.019,3.065v2.599l-0.483,0.136C-125.707-93.014-130.037-89.403-132.659-84.62
		z"/>
	<path d="M-46.194-39.442l20.109-20.148l-9.788-9.784L-56.018-49.23C-51.036-48.314-47.133-44.428-46.194-39.442z"/>
</g>
</svg>
