<svg xmlns="http://www.w3.org/2000/svg" xmlns:xlink="http://www.w3.org/1999/xlink" xmlns:lucid="lucid" width="1412" height="791"><g transform="translate(0 0)" lucid:page-tab-id="0_0"><path d="M80 20h240v140H80z" fill="none"/><use xlink:href="#a" transform="matrix(1,0,0,1,80,20) translate(0 14.222222222222223)"/><use xlink:href="#b" transform="matrix(1,0,0,1,80,20) translate(0 45.15555555555556)"/><use xlink:href="#c" transform="matrix(1,0,0,1,80,20) translate(0 76.0888888888889)"/><use xlink:href="#d" transform="matrix(1,0,0,1,80,20) translate(101.67901234567901 76.0888888888889)"/><use xlink:href="#e" transform="matrix(1,0,0,1,80,20) translate(0 107.02222222222224)"/><use xlink:href="#f" transform="matrix(1,0,0,1,80,20) translate(0 137.95555555555558)"/><use xlink:href="#g" transform="matrix(1,0,0,1,80,20) translate(41.382716049382715 137.95555555555558)"/><path d="M720 60c0 22.1-35.82 40-80 40s-80-17.9-80-40 35.82-40 80-40 80 17.9 80 40z" stroke="#0c7cba" stroke-width="5" fill="#b2d6ef"/><use xlink:href="#h" transform="matrix(1,0,0,1,565,25) translate(39.44444444444444 43)"/><path d="M720 359.54c0 22.14-35.82 40.08-80 40.08s-80-17.94-80-40.08c0-22.14 35.82-40.08 80-40.08s80 17.94 80 40.08z" stroke="#0c7cba" stroke-width="2" fill="#b2d6ef"/><use xlink:href="#i" transform="matrix(1,0,0,1,565,324.4560622883185) translate(51.05 39.1)"/><path d="M960 359.54c0 22.14-35.82 40.08-80 40.08s-80-17.94-80-40.08c0-22.14 35.82-40.08 80-40.08s80 17.94 80 40.08z" stroke="#0c7cba" stroke-width="2" fill="#b2d6ef"/><use xlink:href="#j" transform="matrix(1,0,0,1,805,324.4560622883185) translate(45.525 39.1)"/><path d="M1200 359.54c0 22.14-35.82 40.08-80 40.08s-80-17.94-80-40.08c0-22.14 35.82-40.08 80-40.08s80 17.94 80 40.08z" stroke="#0c7cba" stroke-width="2" fill="#b2d6ef"/><use xlink:href="#k" transform="matrix(1,0,0,1,1045,324.4560622883185) translate(22.049999999999997 39.1)"/><path d="M480 359.54c0 22.14-35.82 40.08-80 40.08s-80-17.94-80-40.08c0-22.14 35.82-40.08 80-40.08s80 17.94 80 40.08z" stroke="#0c7cba" stroke-width="2" fill="#b2d6ef"/><use xlink:href="#l" transform="matrix(1,0,0,1,325,324.4560622883185) translate(49.525 39.1)"/><path d="M1200 143.2l46.4-23.2h67.2l46.4 23.2v33.6l-46.4 23.2h-67.2l-46.4-23.2z" stroke="#19967d" stroke-width="2" fill="#99d5ca"/><use xlink:href="#m" transform="matrix(1,0,0,1,1205,125) translate(49.05 38.6)"/><path d="M60 30c0 5.52-8.95 10-20 10s-20-4.48-20-10 8.95-10 20-10 20 4.48 20 10z" stroke="#0c7cba" stroke-width="2" fill="#b2d6ef"/><path d="M20 85.8L31.6 80h16.8L60 85.8v8.4L48.4 100H31.6L20 94.2z" stroke="#834187" stroke-width="2" fill="#d1bcd2"/><path d="M900 209.5c0 11.05-8.95 20-20 20s-20-8.95-20-20 8.95-20 20-20 20 8.95 20 20z" stroke="#fcc438" stroke-width="2" fill="#ef8d22"/><path d="M723.5 60h37.25v20h19.75" stroke="#c92d39" stroke-width="2" fill="none"/><path d="M723.53 61h-1.06l.03-.97v-.25l-.03-.78h1.06z" fill="#c92d39"/><path d="M795.76 80l-14.26 4.64v-9.28z" stroke="#c92d39" stroke-width="2" fill="#c92d39"/><path d="M556.5 60h-37.25v20H499.5" stroke="#c92d39" stroke-width="2" fill="none"/><path d="M557.5 59.97v.25l.03.78h-1.06v-2h1.06z" fill="#c92d39"/><path d="M484.24 80l14.26-4.64v9.28z" stroke="#c92d39" stroke-width="2" fill="#c92d39"/><path d="M800 60h160v40H800z" stroke="#fcc438" stroke-width="2" fill="#fff"/><use xlink:href="#n" transform="matrix(1,0,0,1,805,65) translate(19.549999999999997 18.6)"/><path d="M320 60h160v40H320z" stroke="#fcc438" stroke-width="2" fill="#fff"/><use xlink:href="#o" transform="matrix(1,0,0,1,325,65) translate(35.075 18.6)"/><path d="M20 110h40v20H20z" stroke="#fcc438" stroke-width="2" fill="#fff"/><path d="M1200 43.2l46.4-23.2h67.2l46.4 23.2v33.6l-46.4 23.2h-67.2L1200 76.8z" stroke="#19967d" stroke-width="2" fill="#99d5ca"/><use xlink:href="#p" transform="matrix(1,0,0,1,1205,25) translate(45.05 38.6)"/><path d="M560 462.96l46.4-23.25h67.2l46.4 23.26v33.67l-46.4 23.24h-67.2L560 496.63z" stroke="#19967d" stroke-width="2" fill="#99d5ca"/><use xlink:href="#q" transform="matrix(1,0,0,1,565,444.70711046294076) translate(36.55 39.1)"/><path d="M20 55.8L31.6 50h16.8L60 55.8v8.4L48.4 70H31.6L20 64.2z" stroke="#19967d" stroke-width="2" fill="#99d5ca"/><path d="M400 102v197.95" stroke="#c92d39" stroke-width="2" fill="none"/><path d="M401 102.03h-2V101h2z" fill="#c92d39"/><path d="M400 315.22l-4.64-14.27h9.28z" stroke="#c92d39" stroke-width="2" fill="#c92d39"/><path d="M640 401.62v18.6" stroke="#c92d39" stroke-width="2" fill="none"/><path d="M640 400.62h1v1.03h-2v-1.06z" fill="#c92d39"/><path d="M640 435.47l-4.64-14.26h9.28z" stroke="#c92d39" stroke-width="2" fill="#c92d39"/><path d="M200 546.57l160-6.65V580H200z" stroke="#de5f85" stroke-width="2" fill="#f9d2de"/><use xlink:href="#r" transform="matrix(1,0,0,1,205,551.596931062605) translate(37.025 17.06666666666667)"/><use xlink:href="#s" transform="matrix(1,0,0,1,205,551.596931062605) translate(97.975 17.06666666666667)"/><path d="M20 143.32L60 140v20H20z" stroke="#de5f85" stroke-width="2" fill="#f9d2de"/><path d="M521 471H281v52.74h-2V469h240V234.8h2zm120-349.96H521v70.55h-2v-72.56h120V103.5h2z" fill="#c92d39"/><path d="M639.97 102.5H641v1.03h-2v-1.06zM280 539l-4.64-14.26h9.28z" fill="#c92d39"/><path d="M280 542.24l-6-18.5h12zm-3.26-16.5l3.26 10.03 3.26-10.03z" fill="#c92d39"/><use xlink:href="#t" transform="matrix(1,0,0,1,493.525,191.59175742109332) translate(0 14.4)"/><use xlink:href="#u" transform="matrix(1,0,0,1,493.525,191.59175742109332) translate(0 36)"/><path d="M1220 266.64l160-6.64v40h-160z" stroke="#de5f85" stroke-width="2" fill="#f9d2de"/><use xlink:href="#r" transform="matrix(1,0,0,1,1225,271.6666666666667) translate(37.025 17.06666666666667)"/><use xlink:href="#s" transform="matrix(1,0,0,1,1225,271.6666666666667) translate(97.975 17.06666666666667)"/><path d="M1362 60h39v162.32h-101v21.5" stroke="#c92d39" stroke-width="2" fill="none"/><path d="M1362.03 61H1361v-2h1.03z" fill="#c92d39"/><path d="M1300 259.08l-4.64-14.26h9.28z" stroke="#c92d39" stroke-width="2" fill="#c92d39"/><path d="M1380 460c0 22.1-35.82 40-80 40s-80-17.9-80-40 35.82-40 80-40 80 17.9 80 40z" stroke="#0c7cba" stroke-width="2" fill="#b2d6ef"/><use xlink:href="#v" transform="matrix(1,0,0,1,1225,425) translate(22.049999999999997 27.799999999999997)"/><use xlink:href="#w" transform="matrix(1,0,0,1,1225,425) translate(11.574999999999996 49.4)"/><use xlink:href="#x" transform="matrix(1,0,0,1,1225,425) translate(73.525 49.4)"/><path d="M962 80h118V60h100.5" stroke="#c92d39" stroke-width="2" fill="none"/><path d="M962.03 81H961v-2h1.03z" fill="#c92d39"/><path d="M1195.76 60l-14.26 4.64v-9.28z" stroke="#c92d39" stroke-width="2" fill="#c92d39"/><path d="M962 80h118v80h100.5" stroke="#c92d39" stroke-width="2" fill="none"/><path d="M962.03 81H961v-2h1.03z" fill="#c92d39"/><path d="M1195.76 160l-14.26 4.64v-9.28z" stroke="#c92d39" stroke-width="2" fill="#c92d39"/><path d="M880 102v68" stroke="#c92d39" stroke-width="2" fill="none"/><path d="M881 102.03h-2V101h2z" fill="#c92d39"/><path d="M880 185.26L875.36 171h9.28z" stroke="#c92d39" stroke-width="2" fill="#c92d39"/><path d="M902 209.5h218v90.45" stroke="#c92d39" stroke-width="2" fill="none"/><path d="M902.03 210.5h-1.15l.12-.96-.03-1.04h1.06z" fill="#c92d39"/><path d="M1120 315.22l-4.64-14.27h9.28z" stroke="#c92d39" stroke-width="2" fill="#c92d39"/><path d="M858 209.5H640v90.45" stroke="#c92d39" stroke-width="2" fill="none"/><path d="M859 209.46l.03 1.04h-1.06v-2h1.15z" fill="#c92d39"/><path d="M640 315.22l-4.64-14.27h9.28z" stroke="#c92d39" stroke-width="2" fill="#c92d39"/><path d="M880 231.5v68.45" stroke="#c92d39" stroke-width="2" fill="none"/><path d="M879.96 230.5l1.04-.03v1.06h-2v-1.15z" fill="#c92d39"/><path d="M880 315.22l-4.64-14.27h9.28z" stroke="#c92d39" stroke-width="2" fill="#c92d39"/><path d="M1300 302v98.5" stroke="#c92d39" stroke-width="2" fill="none"/><path d="M1301 302.03h-2V301h2z" fill="#c92d39"/><path d="M1300 415.76l-4.64-14.26h9.28z" stroke="#c92d39" stroke-width="2" fill="#c92d39"/><path d="M400 401.62v69.8H280v52.32" stroke="#c92d39" stroke-width="2" fill="none"/><path d="M400 400.62h1v1.03h-2v-1.06z" fill="#c92d39"/><path d="M280 539l-4.64-14.26h9.28z" stroke="#c92d39" stroke-width="2" fill="#c92d39"/><path d="M880 543.12l46.4-23.25h67.2l46.4 23.25v33.67l-46.4 23.24h-67.2L880 576.8z" stroke="#834187" stroke-width="2" fill="#d1bcd2"/><use xlink:href="#y" transform="matrix(1,0,0,1,885,524.8744759126889) translate(30.75 39.1)"/><path d="M880 683.25L926.4 660h67.2l46.4 23.25v33.67l-46.4 23.25h-67.2L880 716.92z" stroke="#834187" stroke-width="2" fill="#d1bcd2"/><use xlink:href="#z" transform="matrix(1,0,0,1,885,665) translate(30.574999999999996 28.299999999999997)"/><use xlink:href="#A" transform="matrix(1,0,0,1,885,665) translate(36.099999999999994 49.9)"/><use xlink:href="#B" transform="matrix(1,0,0,1,885,665) translate(59.05 49.9)"/><path d="M880 401.62v58.13h80v40.62" stroke="#c92d39" stroke-width="2" fill="none"/><path d="M880 400.62h1v1.03h-2v-1.06z" fill="#c92d39"/><path d="M960 515.64l-4.64-14.27h9.28z" stroke="#c92d39" stroke-width="2" fill="#c92d39"/><path d="M1120 401.62v58.13H960v40.62" stroke="#c92d39" stroke-width="2" fill="none"/><path d="M1120 400.62h1v1.03h-2v-1.06z" fill="#c92d39"/><path d="M960 515.64l-4.64-14.27h9.28z" stroke="#c92d39" stroke-width="2" fill="#c92d39"/><path d="M1218 460H960v40.37" stroke="#c92d39" stroke-width="2" fill="none"/><path d="M1219 460v.2l.03.8h-1.06v-2h1.06z" fill="#c92d39"/><path d="M960 515.64l-4.64-14.27h9.28z" stroke="#c92d39" stroke-width="2" fill="#c92d39"/><path d="M960 602.04v38.46" stroke="#19967d" stroke-width="2" fill="none"/><path d="M961 602.07h-2v-1.03h2z" fill="#19967d"/><path d="M960 655.76l-4.64-14.26h9.28z" stroke="#19967d" stroke-width="2" fill="#19967d"/><path d="M280 582v198h1020V519.5" stroke="#c92d39" stroke-width="2" fill="none"/><path d="M281 582.03h-2V581h2z" fill="#c92d39"/><path d="M1300 504.24l4.64 14.26h-9.28z" stroke="#c92d39" stroke-width="2" fill="#c92d39"/><path d="M840 438.3h80v41.4h-80z" stroke="#fcc438" stroke-width="2" fill="#fff"/><g><use xlink:href="#C" transform="matrix(1,0,0,1,845,443.31035697137213) translate(14.5 19.6)"/></g><defs><path d="M96-169c-40 0-48 33-48 73s9 75 48 75c24 0 41-14 43-38l32 2c-6 37-31 61-74 61-59 0-76-41-82-99-10-93 101-131 147-64 4 7 5 14 7 22l-32 3c-4-21-16-35-41-35" id="D"/><path d="M100-194c62-1 85 37 85 99 1 63-27 99-86 99S16-35 15-95c0-66 28-99 85-99zM99-20c44 1 53-31 53-75 0-43-8-75-51-75s-53 32-53 75 10 74 51 75" id="E"/><path d="M210-169c-67 3-38 105-44 169h-31v-121c0-29-5-50-35-48C34-165 62-65 56 0H25l-1-190h30c1 10-1 24 2 32 10-44 99-50 107 0 11-21 27-35 58-36 85-2 47 119 55 194h-31v-121c0-29-5-49-35-48" id="F"/><path d="M115-194c55 1 70 41 70 98S169 2 115 4C84 4 66-9 55-30l1 105H24l-1-265h31l2 30c10-21 28-34 59-34zm-8 174c40 0 45-34 45-75s-6-73-45-74c-42 0-51 32-51 76 0 43 10 73 51 73" id="G"/><path d="M117-194c89-4 53 116 60 194h-32v-121c0-31-8-49-39-48C34-167 62-67 57 0H25l-1-190h30c1 10-1 24 2 32 11-22 29-35 61-36" id="H"/><path d="M100-194c63 0 86 42 84 106H49c0 40 14 67 53 68 26 1 43-12 49-29l28 8c-11 28-37 45-77 45C44 4 14-33 15-96c1-61 26-98 85-98zm52 81c6-60-76-77-97-28-3 7-6 17-6 28h103" id="I"/><path d="M59-47c-2 24 18 29 38 22v24C64 9 27 4 27-40v-127H5v-23h24l9-43h21v43h35v23H59v120" id="J"/><path d="M-5 72V49h209v23H-5" id="K"/><path d="M141-36C126-15 110 5 73 4 37 3 15-17 15-53c-1-64 63-63 125-63 3-35-9-54-41-54-24 1-41 7-42 31l-33-3c5-37 33-52 76-52 45 0 72 20 72 64v82c-1 20 7 32 28 27v20c-31 9-61-2-59-35zM48-53c0 20 12 33 32 33 41-3 63-29 60-74-43 2-92-5-92 41" id="L"/><path d="M177-190C167-65 218 103 67 71c-23-6-38-20-44-43l32-5c15 47 100 32 89-28v-30C133-14 115 1 83 1 29 1 15-40 15-95c0-56 16-97 71-98 29-1 48 16 59 35 1-10 0-23 2-32h30zM94-22c36 0 50-32 50-73 0-42-14-75-50-75-39 0-46 34-46 75s6 73 46 73" id="M"/><path d="M135-143c-3-34-86-38-87 0 15 53 115 12 119 90S17 21 10-45l28-5c4 36 97 45 98 0-10-56-113-15-118-90-4-57 82-63 122-42 12 7 21 19 24 35" id="N"/><g id="a"><use transform="matrix(0.04938271604938272,0,0,0.04938271604938272,0,0)" xlink:href="#D"/><use transform="matrix(0.04938271604938272,0,0,0.04938271604938272,8.88888888888889,0)" xlink:href="#E"/><use transform="matrix(0.04938271604938272,0,0,0.04938271604938272,18.765432098765434,0)" xlink:href="#F"/><use transform="matrix(0.04938271604938272,0,0,0.04938271604938272,33.53086419753087,0)" xlink:href="#G"/><use transform="matrix(0.04938271604938272,0,0,0.04938271604938272,43.40740740740741,0)" xlink:href="#E"/><use transform="matrix(0.04938271604938272,0,0,0.04938271604938272,53.283950617283956,0)" xlink:href="#H"/><use transform="matrix(0.04938271604938272,0,0,0.04938271604938272,63.1604938271605,0)" xlink:href="#I"/><use transform="matrix(0.04938271604938272,0,0,0.04938271604938272,73.03703703703704,0)" xlink:href="#H"/><use transform="matrix(0.04938271604938272,0,0,0.04938271604938272,82.91358024691358,0)" xlink:href="#J"/><use transform="matrix(0.04938271604938272,0,0,0.04938271604938272,87.85185185185185,0)" xlink:href="#K"/><use transform="matrix(0.04938271604938272,0,0,0.04938271604938272,97.72839506172839,0)" xlink:href="#G"/><use transform="matrix(0.04938271604938272,0,0,0.04938271604938272,107.60493827160495,0)" xlink:href="#L"/><use transform="matrix(0.04938271604938272,0,0,0.04938271604938272,117.4814814814815,0)" xlink:href="#M"/><use transform="matrix(0.04938271604938272,0,0,0.04938271604938272,127.35802469135804,0)" xlink:href="#I"/><use transform="matrix(0.04938271604938272,0,0,0.04938271604938272,137.23456790123458,0)" xlink:href="#N"/></g><g id="b"><use transform="matrix(0.04938271604938272,0,0,0.04938271604938272,0,0)" xlink:href="#D"/><use transform="matrix(0.04938271604938272,0,0,0.04938271604938272,8.88888888888889,0)" xlink:href="#E"/><use transform="matrix(0.04938271604938272,0,0,0.04938271604938272,18.765432098765434,0)" xlink:href="#F"/><use transform="matrix(0.04938271604938272,0,0,0.04938271604938272,33.53086419753087,0)" xlink:href="#G"/><use transform="matrix(0.04938271604938272,0,0,0.04938271604938272,43.40740740740741,0)" xlink:href="#E"/><use transform="matrix(0.04938271604938272,0,0,0.04938271604938272,53.283950617283956,0)" xlink:href="#H"/><use transform="matrix(0.04938271604938272,0,0,0.04938271604938272,63.1604938271605,0)" xlink:href="#I"/><use transform="matrix(0.04938271604938272,0,0,0.04938271604938272,73.03703703703704,0)" xlink:href="#H"/><use transform="matrix(0.04938271604938272,0,0,0.04938271604938272,82.91358024691358,0)" xlink:href="#J"/><use transform="matrix(0.04938271604938272,0,0,0.04938271604938272,87.85185185185185,0)" xlink:href="#N"/></g><g id="c"><use transform="matrix(0.04938271604938272,0,0,0.04938271604938272,0,0)" xlink:href="#D"/><use transform="matrix(0.04938271604938272,0,0,0.04938271604938272,8.88888888888889,0)" xlink:href="#E"/><use transform="matrix(0.04938271604938272,0,0,0.04938271604938272,18.765432098765434,0)" xlink:href="#F"/><use transform="matrix(0.04938271604938272,0,0,0.04938271604938272,33.53086419753087,0)" xlink:href="#G"/><use transform="matrix(0.04938271604938272,0,0,0.04938271604938272,43.40740740740741,0)" xlink:href="#E"/><use transform="matrix(0.04938271604938272,0,0,0.04938271604938272,53.283950617283956,0)" xlink:href="#H"/><use transform="matrix(0.04938271604938272,0,0,0.04938271604938272,63.1604938271605,0)" xlink:href="#I"/><use transform="matrix(0.04938271604938272,0,0,0.04938271604938272,73.03703703703704,0)" xlink:href="#H"/><use transform="matrix(0.04938271604938272,0,0,0.04938271604938272,82.91358024691358,0)" xlink:href="#J"/><use transform="matrix(0.04938271604938272,0,0,0.04938271604938272,87.85185185185185,0)" xlink:href="#N"/></g><path d="M87 75C49 33 22-17 22-94c0-76 28-126 65-167h31c-38 41-64 92-64 168S80 34 118 75H87" id="O"/><path d="M240 0l2-218c-23 76-54 145-80 218h-23L58-218 59 0H30v-248h44l77 211c21-75 51-140 76-211h43V0h-30" id="P"/><path d="M84 4C-5 8 30-112 23-190h32v120c0 31 7 50 39 49 72-2 45-101 50-169h31l1 190h-30c-1-10 1-25-2-33-11 22-28 36-60 37" id="Q"/><path d="M24 0v-261h32V0H24" id="R"/><path d="M24-231v-30h32v30H24zM24 0v-190h32V0H24" id="S"/><path d="M16-82v-28h88v28H16" id="T"/><path d="M33-261c38 41 65 92 65 168S71 34 33 75H2C39 34 66-17 66-93S39-220 2-261h31" id="U"/><g id="d"><use transform="matrix(0.04938271604938272,0,0,0.04938271604938272,0,0)" xlink:href="#O"/><use transform="matrix(0.04938271604938272,0,0,0.04938271604938272,5.8765432098765435,0)" xlink:href="#P"/><use transform="matrix(0.04938271604938272,0,0,0.04938271604938272,20.641975308641978,0)" xlink:href="#Q"/><use transform="matrix(0.04938271604938272,0,0,0.04938271604938272,30.518518518518523,0)" xlink:href="#R"/><use transform="matrix(0.04938271604938272,0,0,0.04938271604938272,34.41975308641976,0)" xlink:href="#J"/><use transform="matrix(0.04938271604938272,0,0,0.04938271604938272,39.35802469135803,0)" xlink:href="#S"/><use transform="matrix(0.04938271604938272,0,0,0.04938271604938272,43.25925925925927,0)" xlink:href="#T"/><use transform="matrix(0.04938271604938272,0,0,0.04938271604938272,49.13580246913581,0)" xlink:href="#Q"/><use transform="matrix(0.04938271604938272,0,0,0.04938271604938272,59.01234567901235,0)" xlink:href="#N"/><use transform="matrix(0.04938271604938272,0,0,0.04938271604938272,67.90123456790124,0)" xlink:href="#I"/><use transform="matrix(0.04938271604938272,0,0,0.04938271604938272,77.77777777777779,0)" xlink:href="#U"/></g><path d="M140-251c81 0 123 46 123 126C263-46 219 4 140 4 59 4 17-45 17-125s42-126 123-126zm0 227c63 0 89-41 89-101s-29-99-89-99c-61 0-89 39-89 99S79-25 140-24" id="V"/><g id="e"><use transform="matrix(0.04938271604938272,0,0,0.04938271604938272,0,0)" xlink:href="#O"/><use transform="matrix(0.04938271604938272,0,0,0.04938271604938272,5.8765432098765435,0)" xlink:href="#V"/><use transform="matrix(0.04938271604938272,0,0,0.04938271604938272,19.703703703703706,0)" xlink:href="#G"/><use transform="matrix(0.04938271604938272,0,0,0.04938271604938272,29.58024691358025,0)" xlink:href="#J"/><use transform="matrix(0.04938271604938272,0,0,0.04938271604938272,34.51851851851852,0)" xlink:href="#S"/><use transform="matrix(0.04938271604938272,0,0,0.04938271604938272,38.41975308641975,0)" xlink:href="#E"/><use transform="matrix(0.04938271604938272,0,0,0.04938271604938272,48.2962962962963,0)" xlink:href="#H"/><use transform="matrix(0.04938271604938272,0,0,0.04938271604938272,58.17283950617284,0)" xlink:href="#N"/><use transform="matrix(0.04938271604938272,0,0,0.04938271604938272,67.06172839506173,0)" xlink:href="#U"/></g><path d="M185-189c-5-48-123-54-124 2 14 75 158 14 163 119 3 78-121 87-175 55-17-10-28-26-33-46l33-7c5 56 141 63 141-1 0-78-155-14-162-118-5-82 145-84 179-34 5 7 8 16 11 25" id="W"/><g id="f"><use transform="matrix(0.04938271604938272,0,0,0.04938271604938272,0,0)" xlink:href="#O"/><use transform="matrix(0.04938271604938272,0,0,0.04938271604938272,5.8765432098765435,0)" xlink:href="#W"/><use transform="matrix(0.04938271604938272,0,0,0.04938271604938272,17.728395061728396,0)" xlink:href="#S"/><use transform="matrix(0.04938271604938272,0,0,0.04938271604938272,21.62962962962963,0)" xlink:href="#J"/><use transform="matrix(0.04938271604938272,0,0,0.04938271604938272,26.567901234567902,0)" xlink:href="#I"/></g><g id="g"><use transform="matrix(0.04938271604938272,0,0,0.04938271604938272,0,0)" xlink:href="#W"/><use transform="matrix(0.04938271604938272,0,0,0.04938271604938272,11.851851851851853,0)" xlink:href="#J"/><use transform="matrix(0.04938271604938272,0,0,0.04938271604938272,16.790123456790127,0)" xlink:href="#L"/><use transform="matrix(0.04938271604938272,0,0,0.04938271604938272,26.666666666666668,0)" xlink:href="#J"/><use transform="matrix(0.04938271604938272,0,0,0.04938271604938272,31.60493827160494,0)" xlink:href="#Q"/><use transform="matrix(0.04938271604938272,0,0,0.04938271604938272,41.48148148148149,0)" xlink:href="#N"/><use transform="matrix(0.04938271604938272,0,0,0.04938271604938272,50.37037037037038,0)" xlink:href="#U"/></g><path d="M205 0l-28-72H64L36 0H1l101-248h38L239 0h-34zm-38-99l-47-123c-12 45-31 82-46 123h93" id="X"/><g id="h"><use transform="matrix(0.1111111111111111,0,0,0.1111111111111111,0,0)" xlink:href="#X"/><use transform="matrix(0.1111111111111111,0,0,0.1111111111111111,26.666666666666664,0)" xlink:href="#G"/><use transform="matrix(0.1111111111111111,0,0,0.1111111111111111,48.888888888888886,0)" xlink:href="#G"/></g><path d="M197 0v-115H63V0H30v-248h33v105h134v-105h34V0h-34" id="Y"/><g id="i"><use transform="matrix(0.05,0,0,0.05,0,0)" xlink:href="#Y"/><use transform="matrix(0.05,0,0,0.05,12.950000000000001,0)" xlink:href="#E"/><use transform="matrix(0.05,0,0,0.05,22.950000000000003,0)" xlink:href="#F"/><use transform="matrix(0.05,0,0,0.05,37.900000000000006,0)" xlink:href="#I"/></g><path d="M33 0v-248h34V0H33" id="Z"/><g id="j"><use transform="matrix(0.05,0,0,0.05,0,0)" xlink:href="#Z"/><use transform="matrix(0.05,0,0,0.05,5,0)" xlink:href="#F"/><use transform="matrix(0.05,0,0,0.05,19.950000000000003,0)" xlink:href="#L"/><use transform="matrix(0.05,0,0,0.05,29.950000000000003,0)" xlink:href="#M"/><use transform="matrix(0.05,0,0,0.05,39.95,0)" xlink:href="#I"/><use transform="matrix(0.05,0,0,0.05,49.95,0)" xlink:href="#N"/></g><path d="M115-194c53 0 69 39 70 98 0 66-23 100-70 100C84 3 66-7 56-30L54 0H23l1-261h32v101c10-23 28-34 59-34zm-8 174c40 0 45-34 45-75 0-40-5-75-45-74-42 0-51 32-51 76 0 43 10 73 51 73" id="aa"/><path d="M114-163C36-179 61-72 57 0H25l-1-190h30c1 12-1 29 2 39 6-27 23-49 58-41v29" id="ab"/><path d="M108 0H70L1-190h34L89-25l56-165h34" id="ac"/><g id="k"><use transform="matrix(0.05,0,0,0.05,0,0)" xlink:href="#V"/><use transform="matrix(0.05,0,0,0.05,14,0)" xlink:href="#aa"/><use transform="matrix(0.05,0,0,0.05,24,0)" xlink:href="#N"/><use transform="matrix(0.05,0,0,0.05,33,0)" xlink:href="#I"/><use transform="matrix(0.05,0,0,0.05,43,0)" xlink:href="#ab"/><use transform="matrix(0.05,0,0,0.05,48.95,0)" xlink:href="#ac"/><use transform="matrix(0.05,0,0,0.05,57.95,0)" xlink:href="#L"/><use transform="matrix(0.05,0,0,0.05,67.95,0)" xlink:href="#J"/><use transform="matrix(0.05,0,0,0.05,72.95,0)" xlink:href="#S"/><use transform="matrix(0.05,0,0,0.05,76.9,0)" xlink:href="#E"/><use transform="matrix(0.05,0,0,0.05,86.9,0)" xlink:href="#H"/><use transform="matrix(0.05,0,0,0.05,96.9,0)" xlink:href="#N"/></g><g id="l"><use transform="matrix(0.05,0,0,0.05,0,0)" xlink:href="#W"/><use transform="matrix(0.05,0,0,0.05,12,0)" xlink:href="#S"/><use transform="matrix(0.05,0,0,0.05,15.949999999999998,0)" xlink:href="#M"/><use transform="matrix(0.05,0,0,0.05,25.950000000000003,0)" xlink:href="#H"/><use transform="matrix(0.05,0,0,0.05,35.95,0)" xlink:href="#Z"/><use transform="matrix(0.05,0,0,0.05,40.95,0)" xlink:href="#H"/></g><path d="M63-220v92h138v28H63V0H30v-248h175v28H63" id="ad"/><g id="m"><use transform="matrix(0.05,0,0,0.05,0,0)" xlink:href="#ad"/><use transform="matrix(0.05,0,0,0.05,10.950000000000001,0)" xlink:href="#E"/><use transform="matrix(0.05,0,0,0.05,20.950000000000003,0)" xlink:href="#E"/><use transform="matrix(0.05,0,0,0.05,30.950000000000003,0)" xlink:href="#J"/><use transform="matrix(0.05,0,0,0.05,35.95,0)" xlink:href="#I"/><use transform="matrix(0.05,0,0,0.05,45.95,0)" xlink:href="#ab"/></g><path d="M190 0L58-211 59 0H30v-248h39L202-35l-2-213h31V0h-41" id="ae"/><path d="M160-131c35 5 61 23 61 61C221 17 115-2 30 0v-248c76 3 177-17 177 60 0 33-19 50-47 57zm-97-11c50-1 110 9 110-42 0-47-63-36-110-37v79zm0 115c55-2 124 14 124-45 0-56-70-42-124-44v89" id="af"/><path d="M30-248c87 1 191-15 191 75 0 78-77 80-158 76V0H30v-248zm33 125c57 0 124 11 124-50 0-59-68-47-124-48v98" id="ag"/><g id="n"><use transform="matrix(0.05,0,0,0.05,0,0)" xlink:href="#ae"/><use transform="matrix(0.05,0,0,0.05,12.950000000000001,0)" xlink:href="#L"/><use transform="matrix(0.05,0,0,0.05,22.950000000000003,0)" xlink:href="#ac"/><use transform="matrix(0.05,0,0,0.05,31.950000000000003,0)" xlink:href="#af"/><use transform="matrix(0.05,0,0,0.05,43.95,0)" xlink:href="#L"/><use transform="matrix(0.05,0,0,0.05,53.95,0)" xlink:href="#ab"/><use transform="matrix(0.05,0,0,0.05,59.900000000000006,0)" xlink:href="#ag"/><use transform="matrix(0.05,0,0,0.05,71.9,0)" xlink:href="#L"/><use transform="matrix(0.05,0,0,0.05,81.9,0)" xlink:href="#M"/><use transform="matrix(0.05,0,0,0.05,91.9,0)" xlink:href="#I"/><use transform="matrix(0.05,0,0,0.05,101.9,0)" xlink:href="#N"/></g><g id="o"><use transform="matrix(0.05,0,0,0.05,0,0)" xlink:href="#ad"/><use transform="matrix(0.05,0,0,0.05,10.950000000000001,0)" xlink:href="#Q"/><use transform="matrix(0.05,0,0,0.05,20.950000000000003,0)" xlink:href="#R"/><use transform="matrix(0.05,0,0,0.05,24.900000000000002,0)" xlink:href="#R"/><use transform="matrix(0.05,0,0,0.05,28.85,0)" xlink:href="#ag"/><use transform="matrix(0.05,0,0,0.05,40.85,0)" xlink:href="#L"/><use transform="matrix(0.05,0,0,0.05,50.85,0)" xlink:href="#M"/><use transform="matrix(0.05,0,0,0.05,60.85,0)" xlink:href="#I"/><use transform="matrix(0.05,0,0,0.05,70.85,0)" xlink:href="#N"/></g><g id="p"><use transform="matrix(0.05,0,0,0.05,0,0)" xlink:href="#ae"/><use transform="matrix(0.05,0,0,0.05,12.950000000000001,0)" xlink:href="#L"/><use transform="matrix(0.05,0,0,0.05,22.950000000000003,0)" xlink:href="#ac"/><use transform="matrix(0.05,0,0,0.05,31.950000000000003,0)" xlink:href="#af"/><use transform="matrix(0.05,0,0,0.05,43.95,0)" xlink:href="#L"/><use transform="matrix(0.05,0,0,0.05,53.95,0)" xlink:href="#ab"/></g><path d="M101-234c-31-9-42 10-38 44h38v23H63V0H32v-167H5v-23h27c-7-52 17-82 69-68v24" id="ah"/><g id="q"><use transform="matrix(0.05,0,0,0.05,0,0)" xlink:href="#P"/><use transform="matrix(0.05,0,0,0.05,14.950000000000001,0)" xlink:href="#L"/><use transform="matrix(0.05,0,0,0.05,24.950000000000003,0)" xlink:href="#H"/><use transform="matrix(0.05,0,0,0.05,34.95,0)" xlink:href="#S"/><use transform="matrix(0.05,0,0,0.05,38.900000000000006,0)" xlink:href="#ah"/><use transform="matrix(0.05,0,0,0.05,43.900000000000006,0)" xlink:href="#I"/><use transform="matrix(0.05,0,0,0.05,53.900000000000006,0)" xlink:href="#N"/><use transform="matrix(0.05,0,0,0.05,62.900000000000006,0)" xlink:href="#J"/><use transform="matrix(0.05,0,0,0.05,67.9,0)" xlink:href="#N"/></g><path d="M85-194c31 0 48 13 60 33l-1-100h32l1 261h-30c-2-10 0-23-3-31C134-8 116 4 85 4 32 4 16-35 15-94c0-66 23-100 70-100zm9 24c-40 0-46 34-46 75 0 40 6 74 45 74 42 0 51-32 51-76 0-42-9-74-50-73" id="ai"/><g id="r"><use transform="matrix(0.05,0,0,0.05,0,0)" xlink:href="#W"/><use transform="matrix(0.05,0,0,0.05,12,0)" xlink:href="#S"/><use transform="matrix(0.05,0,0,0.05,15.949999999999998,0)" xlink:href="#M"/><use transform="matrix(0.05,0,0,0.05,25.950000000000003,0)" xlink:href="#H"/><use transform="matrix(0.05,0,0,0.05,35.95,0)" xlink:href="#I"/><use transform="matrix(0.05,0,0,0.05,45.95,0)" xlink:href="#ai"/></g><g id="s"><use transform="matrix(0.05,0,0,0.05,0,0)" xlink:href="#Z"/><use transform="matrix(0.05,0,0,0.05,5,0)" xlink:href="#H"/></g><g id="t"><use transform="matrix(0.05,0,0,0.05,0,0)" xlink:href="#W"/><use transform="matrix(0.05,0,0,0.05,12,0)" xlink:href="#J"/><use transform="matrix(0.05,0,0,0.05,17,0)" xlink:href="#E"/><use transform="matrix(0.05,0,0,0.05,27,0)" xlink:href="#ab"/><use transform="matrix(0.05,0,0,0.05,32.95,0)" xlink:href="#I"/><use transform="matrix(0.05,0,0,0.05,42.95,0)" xlink:href="#ai"/></g><g id="u"><use transform="matrix(0.05,0,0,0.05,0,0)" xlink:href="#W"/><use transform="matrix(0.05,0,0,0.05,12,0)" xlink:href="#S"/><use transform="matrix(0.05,0,0,0.05,15.949999999999998,0)" xlink:href="#M"/><use transform="matrix(0.05,0,0,0.05,25.950000000000003,0)" xlink:href="#H"/><use transform="matrix(0.05,0,0,0.05,35.95,0)" xlink:href="#Z"/><use transform="matrix(0.05,0,0,0.05,40.95,0)" xlink:href="#H"/></g><g id="v"><use transform="matrix(0.05,0,0,0.05,0,0)" xlink:href="#V"/><use transform="matrix(0.05,0,0,0.05,14,0)" xlink:href="#aa"/><use transform="matrix(0.05,0,0,0.05,24,0)" xlink:href="#N"/><use transform="matrix(0.05,0,0,0.05,33,0)" xlink:href="#I"/><use transform="matrix(0.05,0,0,0.05,43,0)" xlink:href="#ab"/><use transform="matrix(0.05,0,0,0.05,48.95,0)" xlink:href="#ac"/><use transform="matrix(0.05,0,0,0.05,57.95,0)" xlink:href="#L"/><use transform="matrix(0.05,0,0,0.05,67.95,0)" xlink:href="#J"/><use transform="matrix(0.05,0,0,0.05,72.95,0)" xlink:href="#S"/><use transform="matrix(0.05,0,0,0.05,76.9,0)" xlink:href="#E"/><use transform="matrix(0.05,0,0,0.05,86.9,0)" xlink:href="#H"/><use transform="matrix(0.05,0,0,0.05,96.9,0)" xlink:href="#N"/></g><g id="w"><use transform="matrix(0.05,0,0,0.05,0,0)" xlink:href="#O"/><use transform="matrix(0.05,0,0,0.05,5.95,0)" xlink:href="#W"/><use transform="matrix(0.05,0,0,0.05,17.95,0)" xlink:href="#L"/><use transform="matrix(0.05,0,0,0.05,27.950000000000003,0)" xlink:href="#ac"/><use transform="matrix(0.05,0,0,0.05,36.95,0)" xlink:href="#I"/><use transform="matrix(0.05,0,0,0.05,46.95,0)" xlink:href="#ai"/></g><g id="x"><use transform="matrix(0.05,0,0,0.05,0,0)" xlink:href="#Z"/><use transform="matrix(0.05,0,0,0.05,5,0)" xlink:href="#F"/><use transform="matrix(0.05,0,0,0.05,19.950000000000003,0)" xlink:href="#L"/><use transform="matrix(0.05,0,0,0.05,29.950000000000003,0)" xlink:href="#M"/><use transform="matrix(0.05,0,0,0.05,39.95,0)" xlink:href="#I"/><use transform="matrix(0.05,0,0,0.05,49.95,0)" xlink:href="#N"/><use transform="matrix(0.05,0,0,0.05,58.95,0)" xlink:href="#U"/></g><path d="M137 0h-34L2-248h35l83 218 83-218h36" id="aj"/><path d="M206 0h-36l-40-164L89 0H53L-1-190h32L70-26l43-164h34l41 164 42-164h31" id="ak"/><g id="y"><use transform="matrix(0.05,0,0,0.05,0,0)" xlink:href="#Z"/><use transform="matrix(0.05,0,0,0.05,5,0)" xlink:href="#F"/><use transform="matrix(0.05,0,0,0.05,19.950000000000003,0)" xlink:href="#L"/><use transform="matrix(0.05,0,0,0.05,29.950000000000003,0)" xlink:href="#M"/><use transform="matrix(0.05,0,0,0.05,39.95,0)" xlink:href="#I"/><use transform="matrix(0.05,0,0,0.05,49.95,0)" xlink:href="#aj"/><use transform="matrix(0.05,0,0,0.05,61.6,0)" xlink:href="#S"/><use transform="matrix(0.05,0,0,0.05,65.55,0)" xlink:href="#I"/><use transform="matrix(0.05,0,0,0.05,75.55,0)" xlink:href="#ak"/></g><path d="M212-179c-10-28-35-45-73-45-59 0-87 40-87 99 0 60 29 101 89 101 43 0 62-24 78-52l27 14C228-24 195 4 139 4 59 4 22-46 18-125c-6-104 99-153 187-111 19 9 31 26 39 46" id="al"/><g id="z"><use transform="matrix(0.05,0,0,0.05,0,0)" xlink:href="#Z"/><use transform="matrix(0.05,0,0,0.05,5,0)" xlink:href="#F"/><use transform="matrix(0.05,0,0,0.05,19.950000000000003,0)" xlink:href="#L"/><use transform="matrix(0.05,0,0,0.05,29.950000000000003,0)" xlink:href="#M"/><use transform="matrix(0.05,0,0,0.05,39.95,0)" xlink:href="#I"/><use transform="matrix(0.05,0,0,0.05,49.95,0)" xlink:href="#al"/><use transform="matrix(0.05,0,0,0.05,62.900000000000006,0)" xlink:href="#L"/><use transform="matrix(0.05,0,0,0.05,72.9,0)" xlink:href="#ab"/><use transform="matrix(0.05,0,0,0.05,78.85000000000001,0)" xlink:href="#ai"/></g><path d="M234-2c-28 10-62 0-77-18C117 19 8 12 13-65c3-43 29-61 60-76-25-40-17-114 47-108 35 3 59 15 59 50 0 44-40 53-71 69 14 26 32 50 51 72 14-21 24-43 30-72l26 8c-9 33-21 57-38 82 13 13 33 22 57 15v23zM97-151c25-10 52-18 56-48-1-18-13-29-33-29-42 0-39 50-23 77zM42-66c-3 51 71 58 98 28-20-24-41-51-56-80-23 10-40 24-42 52" id="am"/><g id="A"><use transform="matrix(0.05,0,0,0.05,0,0)" xlink:href="#O"/><use transform="matrix(0.05,0,0,0.05,5.95,0)" xlink:href="#am"/></g><g id="B"><use transform="matrix(0.05,0,0,0.05,0,0)" xlink:href="#P"/><use transform="matrix(0.05,0,0,0.05,14.950000000000001,0)" xlink:href="#E"/><use transform="matrix(0.05,0,0,0.05,24.950000000000003,0)" xlink:href="#ai"/><use transform="matrix(0.05,0,0,0.05,34.95,0)" xlink:href="#I"/><use transform="matrix(0.05,0,0,0.05,44.95,0)" xlink:href="#R"/><use transform="matrix(0.05,0,0,0.05,48.900000000000006,0)" xlink:href="#U"/></g><g id="C"><use transform="matrix(0.05,0,0,0.05,0,0)" xlink:href="#W"/><use transform="matrix(0.05,0,0,0.05,12,0)" xlink:href="#L"/><use transform="matrix(0.05,0,0,0.05,22,0)" xlink:href="#ac"/><use transform="matrix(0.05,0,0,0.05,31,0)" xlink:href="#I"/></g></defs></g></svg>